<svg width="144" height="45" viewBox="0 0 144 45" fill="none" xmlns="http://www.w3.org/2000/svg">
<g clip-path="url(#clip0_2_3)">
<path d="M138.127 32.2941C136.953 32.2941 135.827 32.7584 134.996 33.5849C134.166 34.4114 133.699 35.5323 133.699 36.7011C133.689 37.2988 133.799 37.8926 134.024 38.4469C134.248 39.0013 134.583 39.5049 135.008 39.9277C135.412 40.3551 135.902 40.6941 136.445 40.9232C136.988 41.1522 137.573 41.2664 138.163 41.2583C138.742 41.2647 139.317 41.1516 139.85 40.9263C140.383 40.701 140.864 40.3683 141.261 39.9491C141.681 39.5398 142.012 39.0495 142.235 38.5082C142.457 37.9669 142.566 37.386 142.555 36.8013C142.565 36.2124 142.456 35.6276 142.234 35.0818C142.011 34.536 141.681 34.0404 141.261 33.6248C140.859 33.2004 140.373 32.8632 139.834 32.6342C139.294 32.4053 138.714 32.2895 138.127 32.2941Z" fill="#0366FF"/>
<path d="M140.758 30.1622L144 1.54531L132.125 0L135.54 30.1264C137.218 29.4757 139.08 29.4757 140.758 30.1264V30.1622Z" fill="#0366FF"/>
<path d="M5.87273 12.7059C6.45034 12.7181 7.02437 12.6127 7.55959 12.3962C8.0948 12.1796 8.57993 11.8566 8.9852 11.4467C9.40141 11.0408 9.73065 10.5551 9.95303 10.019C10.1754 9.48287 10.2863 8.90746 10.2791 8.32751C10.2905 7.73037 10.1812 7.13704 9.95767 6.58277C9.73416 6.02849 9.40101 5.52458 8.97801 5.10096C8.56986 4.67672 8.07857 4.34036 7.53454 4.1127C6.99052 3.88504 6.40534 3.77093 5.81523 3.77743C5.23756 3.76988 4.6646 3.8817 4.13257 4.10582C3.60055 4.32994 3.12103 4.66149 2.72433 5.07949C2.30941 5.48605 1.98151 5.97202 1.76038 6.50811C1.53924 7.04419 1.42946 7.61928 1.43765 8.19873C1.42751 8.791 1.53822 9.37916 1.76309 9.92761C1.98796 10.4761 2.3223 10.9734 2.74589 11.3895C3.14761 11.8118 3.6328 12.1468 4.17093 12.3733C4.70906 12.5998 5.28849 12.7131 5.87273 12.7059Z" fill="#0366FF"/>
<path d="M3.24185 14.845L0 43.4619L11.8748 45L8.46044 14.8736C7.63837 15.1933 6.76246 15.3536 5.8799 15.3458C4.97588 15.3547 4.07912 15.1844 3.24185 14.845Z" fill="#0366FF"/>
<path d="M51.8409 33.496L58.3533 41.8736H49.9216L46.6151 37.6383C43.808 39.1452 40.6608 39.9135 37.4718 39.8704C34.8607 39.9406 32.264 39.462 29.8513 38.466C27.4386 37.4699 25.2639 35.9788 23.4693 34.0898C21.6676 32.2762 20.2466 30.1239 19.2889 27.7583C18.3313 25.3926 17.8562 22.861 17.8913 20.3108C17.8615 16.8861 18.7471 13.5151 20.4573 10.5432C22.1676 7.57135 24.641 5.10546 27.624 3.39825C30.5794 1.66668 33.9489 0.759685 37.3783 0.772656C39.9272 0.745269 42.4546 1.23913 44.8039 2.22363C47.1531 3.20813 49.2743 4.66229 51.0358 6.49603C52.8959 8.30788 54.3652 10.4782 55.354 12.8745C56.3427 15.2707 56.8301 17.8424 56.7863 20.4324C56.8673 25.2545 55.0988 29.926 51.8409 33.496ZM47.3914 27.7727C48.8854 25.5965 49.6755 23.0179 49.6557 20.3824C49.6888 18.7217 49.3879 17.0713 48.7707 15.5281C48.1535 13.985 47.2324 12.5803 46.0616 11.3967C44.9546 10.2106 43.6096 9.26906 42.1138 8.63314C40.618 7.99722 39.0047 7.68104 37.3783 7.70509C35.7451 7.66296 34.1208 7.95919 32.6087 8.57498C31.0966 9.19077 29.7296 10.1127 28.5944 11.2822C27.4185 12.4904 26.4993 13.9222 25.8917 15.4918C25.284 17.0615 25.0005 18.7369 25.0579 20.4181C25.0579 24.539 26.5434 27.7965 29.5145 30.1908C31.7338 32.0281 34.5349 33.0241 37.4215 33.0024C39.0698 33.01 40.7011 32.6711 42.2088 32.008L35.5094 23.4229H44.0274L47.3914 27.7727Z" fill="#0366FF"/>
<path d="M62.7021 11.3967H69.725V24.6606C69.6344 26.4722 69.8112 28.2872 70.2497 30.0477C70.5638 30.9884 71.1673 31.8069 71.9748 32.3871C72.8343 32.9661 73.856 33.2592 74.8932 33.2242C75.9371 33.257 76.9659 32.9698 77.8404 32.4014C78.681 31.8046 79.3101 30.958 79.6374 29.9833C79.9249 29.1916 80.0687 27.496 80.0687 24.8967V11.3967H87.0124V23.0652C87.0124 27.8728 86.6291 31.1638 85.8623 32.938C85.0428 34.9911 83.6038 36.7407 81.7435 37.946C79.6547 39.1752 77.2531 39.7765 74.8285 39.6773C71.7951 39.6773 69.3416 39.0024 67.4679 37.6526C65.5599 36.2604 64.1695 34.2777 63.5144 32.0151C62.9681 30.3172 62.6974 27.2766 62.7021 22.8935V11.3967Z" fill="#0366FF"/>
<path d="M93.2158 11.3967H100.16V38.9332H93.2158V11.3967Z" fill="#0366FF"/>
<path d="M105.292 11.3967H126.511L114.047 33.0882H125.792V38.9332H103.387L115.873 17.2488H105.292V11.3967Z" fill="#0366FF"/>
</g>
<defs>
<clipPath id="clip0_2_3">
<rect width="144" height="45" fill="white"/>
</clipPath>
</defs>
</svg>
