<svg width="1499" height="912" viewBox="0 0 1499 912" fill="none" xmlns="http://www.w3.org/2000/svg">
<g clip-path="url(#clip0_14_1429)">
<rect width="1499" height="912" fill="none"/>
<g clip-path="url(#clip1_14_1429)">
<path d="M385.709 7.66988C378.986 9.47108 373.251 13.8544 369.765 19.8556C366.278 25.8567 365.326 32.9842 367.117 39.6699C367.971 43.1055 369.512 46.3328 371.648 49.159C373.785 51.9853 376.472 54.3526 379.551 56.1197C382.522 57.944 385.843 59.1325 389.304 59.6096C392.765 60.0868 396.289 59.8421 399.654 58.8913C402.979 58.0391 406.093 56.5116 408.799 54.405C411.506 52.2984 413.747 49.6583 415.381 46.6506C417.156 43.6656 418.301 40.3527 418.745 36.9151C419.189 33.4774 418.923 29.9877 417.963 26.66C417.118 23.2762 415.595 20.0987 413.486 17.3176C411.377 14.5366 408.725 12.2092 405.688 10.4747C402.734 8.66423 399.435 7.48073 395.998 6.99813C392.56 6.51553 389.057 6.74421 385.709 7.66988Z" fill="#0366FF" fill-opacity="0.05"/>
<path d="M397.5 -8.56051L372.196 -177.225L301.854 -167.851L367.574 -0.760928C376.182 -7.05664 386.843 -9.91313 397.446 -8.76512L397.5 -8.56051Z" fill="#0366FF" fill-opacity="0.05"/>
<path d="M-78.066 3.81924L-37.8664 -6.95223L-17.5367 68.9191C-15.2784 79.4205 -11.4845 89.5314 -6.27617 98.9294C-3.0366 103.829 1.67275 107.585 7.1845 109.665C12.9916 111.659 19.2891 111.768 25.1727 109.977C31.1983 108.563 36.647 105.343 40.7816 100.751C44.6785 96.0471 46.982 90.24 47.3618 84.1624C47.7942 79.1925 46.0183 69.2733 42.0342 54.4046L21.3427 -22.8173L61.0898 -33.4675L78.9742 33.2781C86.3429 60.7784 89.1924 80.191 87.5229 91.5159C85.9785 104.517 80.4231 116.732 71.622 126.479C61.5493 136.714 48.7238 143.838 34.6931 146.989C17.3295 151.641 2.25062 151.544 -10.5436 146.697C-23.5992 141.66 -34.5966 132.451 -41.8145 120.514C-47.5441 111.639 -53.7541 94.6622 -60.4448 69.5826L-78.066 3.81924Z" fill="#0366FF" fill-opacity="0.05"/>
<path d="M96.5986 -42.9822L136.346 -53.6324L178.551 103.88L138.804 114.531L96.5986 -42.9822Z" fill="#0366FF" fill-opacity="0.05"/>
<path d="M165.724 -61.5042L287.187 -94.0501L249.087 49.1461L316.319 31.1311L325.278 64.5653L197.026 98.9303L235.261 -44.258L174.694 -28.0291L165.724 -61.5042Z" fill="#0366FF" fill-opacity="0.05"/>
</g>
<g clip-path="url(#clip2_14_1429)">
<path d="M458.862 -118.909L484.167 49.7555L554.497 40.3406L488.778 -126.75C484.562 -123.66 479.794 -121.4 474.73 -120.091C469.569 -118.653 464.175 -118.252 458.862 -118.909Z" fill="#0366FF" fill-opacity="0.05"/>
<path d="M765.637 -86.763L815.756 -48.8308L767.491 -35.8984L742.073 -55.0533C728.314 -42.1284 711.477 -32.9063 693.156 -28.2615C678.317 -23.8554 662.72 -22.6102 647.383 -24.607C632.045 -26.6039 617.312 -31.798 604.144 -39.8505C591.051 -47.4614 579.618 -57.5933 570.51 -69.6562C561.403 -81.7191 554.803 -95.4717 551.095 -110.113C545.676 -129.657 545.578 -150.298 550.813 -169.921C556.048 -189.543 566.426 -207.442 580.885 -221.783C595.148 -236.221 613.046 -246.577 632.696 -251.763C647.244 -255.829 662.468 -256.88 677.425 -254.852C692.381 -252.824 706.752 -247.759 719.645 -239.972C733.07 -232.461 744.807 -222.3 754.14 -210.11C763.472 -197.919 770.203 -183.956 773.923 -169.074C781.777 -141.615 778.814 -112.181 765.637 -86.763ZM731.395 -112.677C736.612 -127.416 737.182 -143.378 733.029 -158.423C730.674 -167.973 726.422 -176.952 720.523 -184.833C714.625 -192.713 707.199 -199.336 698.684 -204.31C690.529 -209.397 681.387 -212.72 671.85 -214.063C662.313 -215.406 652.594 -214.74 643.321 -212.108C633.908 -209.844 625.064 -205.658 617.352 -199.817C609.641 -193.975 603.229 -186.605 598.523 -178.174C593.644 -169.459 590.577 -159.86 589.505 -149.949C588.432 -140.038 589.377 -130.02 592.282 -120.491C598.598 -96.9194 612.095 -80.5642 632.771 -71.4257C648.291 -64.3199 665.851 -62.9188 682.341 -67.4705C691.788 -69.9553 700.607 -74.3957 708.22 -80.5014L656.714 -119.334L705.472 -132.398L731.395 -112.677Z" fill="#0366FF" fill-opacity="0.05"/>
</g>
<g clip-path="url(#clip3_14_1429)">
<path d="M894.818 166.555C888.096 168.356 882.361 172.739 878.874 178.741C875.388 184.742 874.435 191.869 876.227 198.555C877.08 201.991 878.622 205.218 880.758 208.044C882.894 210.87 885.582 213.238 888.661 215.005C891.631 216.829 894.953 218.017 898.413 218.495C901.874 218.972 905.399 218.727 908.763 217.776C912.088 216.924 915.202 215.397 917.909 213.29C920.616 211.183 922.856 208.543 924.49 205.536C926.266 202.551 927.411 199.238 927.855 195.8C928.298 192.362 928.032 188.873 927.072 185.545C926.227 182.161 924.705 178.984 922.595 176.203C920.486 173.422 917.834 171.094 914.797 169.36C911.843 167.549 908.545 166.366 905.107 165.883C901.669 165.401 898.167 165.629 894.818 166.555Z" fill="#0366FF" fill-opacity="0.05"/>
<path d="M906.61 150.324L881.305 -18.3401L810.964 -8.96606L876.683 158.124C885.291 151.828 895.952 148.972 906.555 150.12L906.61 150.324Z" fill="#0366FF" fill-opacity="0.05"/>
<path d="M107.75 257.357C111.075 256.541 114.199 255.058 116.931 252.998C119.663 250.939 121.944 248.347 123.636 245.381C125.396 242.42 126.536 239.137 126.988 235.73C127.439 232.322 127.192 228.86 126.261 225.554C125.411 222.121 123.876 218.895 121.748 216.067C119.619 213.239 116.939 210.868 113.869 209.093C110.882 207.293 107.554 206.122 104.091 205.654C100.628 205.186 97.1038 205.431 93.7358 206.373C90.4176 207.216 87.3093 208.735 84.6074 210.833C81.9055 212.931 79.6688 215.563 78.0387 218.562C76.2868 221.524 75.1547 224.807 74.7106 228.213C74.2664 231.618 74.5195 235.076 75.4545 238.378C76.3042 241.782 77.8394 244.976 79.9672 247.768C82.095 250.561 84.7711 252.893 87.8336 254.623C90.7803 256.423 94.071 257.595 97.4986 258.065C100.926 258.536 104.416 258.295 107.75 257.357Z" fill="#0366FF" fill-opacity="0.05"/>
<path d="M95.969 273.629L121.273 442.293L191.604 432.878L125.885 265.788C121.669 268.878 116.901 271.138 111.837 272.447C106.676 273.884 101.282 274.286 95.969 273.629Z" fill="#0366FF" fill-opacity="0.05"/>
<path d="M402.744 305.775L452.862 343.707L404.598 356.639L379.179 337.484C365.421 350.409 348.583 359.631 330.263 364.276C315.424 368.682 299.827 369.927 284.489 367.931C269.152 365.934 254.419 360.74 241.25 352.687C228.158 345.076 216.725 334.944 207.617 322.881C198.509 310.819 191.91 297.066 188.202 282.425C182.782 262.881 182.685 242.24 187.92 222.617C193.154 202.994 203.533 185.095 217.992 170.755C232.255 156.317 250.152 145.961 269.803 140.775C284.351 136.709 299.575 135.657 314.531 137.685C329.488 139.714 343.858 144.778 356.752 152.566C370.177 160.077 381.914 170.238 391.246 182.428C400.579 194.618 407.31 208.581 411.029 223.464C418.884 250.923 415.921 280.357 402.744 305.775ZM368.502 279.861C373.719 265.121 374.289 249.16 370.136 234.114C367.78 224.564 363.528 215.585 357.63 207.705C351.732 199.824 344.306 193.202 335.79 188.227C327.636 183.141 318.494 179.818 308.957 178.475C299.42 177.131 289.701 177.797 280.428 180.429C271.014 182.693 262.171 186.879 254.459 192.721C246.747 198.563 240.335 205.933 235.63 214.363C230.751 223.078 227.684 232.678 226.611 242.589C225.539 252.499 226.484 262.518 229.389 272.047C235.705 295.618 249.201 311.973 269.878 321.112C285.398 328.218 302.958 329.619 319.448 325.067C328.895 322.582 337.714 318.142 345.327 312.036L293.821 273.204L342.579 260.139L368.502 279.861Z" fill="#0366FF" fill-opacity="0.05"/>
<path d="M431.043 162.704L471.243 151.933L491.573 227.804C493.831 238.306 497.625 248.417 502.833 257.815C506.073 262.714 510.782 266.47 516.294 268.55C522.101 270.544 528.399 270.653 534.282 268.862C540.308 267.449 545.756 264.228 549.891 259.636C553.788 254.932 556.091 249.125 556.471 243.047C556.904 238.078 555.128 228.158 551.144 213.29L530.452 136.068L570.199 125.418L588.084 192.163C595.452 219.663 598.302 239.076 596.632 250.401C595.088 263.402 589.533 275.617 580.731 285.365C570.659 295.6 557.833 302.723 543.803 305.874C526.439 310.527 511.36 310.429 498.566 305.582C485.51 300.545 474.513 291.337 467.295 279.399C461.565 270.524 455.355 253.547 448.665 228.468L431.043 162.704Z" fill="#0366FF" fill-opacity="0.05"/>
<path d="M605.708 115.903L645.455 105.253L687.661 262.766L647.914 273.416L605.708 115.903Z" fill="#0366FF" fill-opacity="0.05"/>
<path d="M674.833 97.381L796.296 64.835L758.196 208.031L825.429 190.016L834.387 223.45L706.135 257.815L744.37 114.627L683.803 130.856L674.833 97.381Z" fill="#0366FF" fill-opacity="0.05"/>
</g>
<g clip-path="url(#clip4_14_1429)">
<path d="M981.191 23.3194C984.516 22.5032 987.64 21.0199 990.372 18.9605C993.104 16.901 995.386 14.3089 997.078 11.3431C998.838 8.38262 999.978 5.09939 1000.43 1.69168C1000.88 -1.71603 1000.63 -5.17753 999.703 -8.48384C998.853 -11.917 997.318 -15.1433 995.189 -17.971C993.06 -20.7988 990.381 -23.1702 987.31 -24.9446C984.324 -26.7453 980.996 -27.9158 977.533 -28.3836C974.07 -28.8514 970.545 -28.6066 967.177 -27.6644C963.859 -26.8215 960.751 -25.3031 958.049 -23.2051C955.347 -21.1071 953.11 -18.4751 951.48 -15.4756C949.728 -12.5136 948.596 -9.23088 948.152 -5.82524C947.708 -2.41961 947.961 1.0384 948.896 4.34035C949.746 7.74378 951.281 10.9383 953.409 13.7306C955.536 16.523 958.213 18.855 961.275 20.5855C964.222 22.3849 967.513 23.5567 970.94 24.0272C974.368 24.4977 977.858 24.2567 981.191 23.3194Z" fill="#0366FF" fill-opacity="0.05"/>
<path d="M969.41 39.5906L994.715 208.255L1065.05 198.84L999.326 31.7501C995.111 34.8396 990.342 37.0999 985.279 38.409C980.117 39.8464 974.723 40.2481 969.41 39.5906Z" fill="#0366FF" fill-opacity="0.05"/>
<path d="M1276.19 71.7365L1326.3 109.669L1278.04 122.601L1252.62 103.446C1238.86 116.371 1222.02 125.593 1203.7 130.238C1188.87 134.644 1173.27 135.889 1157.93 133.892C1142.59 131.896 1127.86 126.701 1114.69 118.649C1101.6 111.038 1090.17 100.906 1081.06 88.8433C1071.95 76.7804 1065.35 63.0278 1061.64 48.3866C1056.22 28.8425 1056.13 8.20161 1061.36 -11.4211C1066.6 -31.0438 1076.97 -48.9426 1091.43 -63.2834C1105.7 -77.7211 1123.59 -88.0774 1143.24 -93.2632C1157.79 -97.3293 1173.02 -98.3808 1187.97 -96.3526C1202.93 -94.3244 1217.3 -89.2597 1230.19 -81.4723C1243.62 -73.9613 1255.36 -63.8002 1264.69 -51.61C1274.02 -39.4199 1280.75 -25.4568 1284.47 -10.5742C1292.33 16.8845 1289.36 46.3188 1276.19 71.7365ZM1241.94 45.8226C1247.16 31.0834 1247.73 15.1215 1243.58 0.076142C1241.22 -9.47364 1236.97 -18.4529 1231.07 -26.3333C1225.17 -34.2137 1217.75 -40.836 1209.23 -45.8107C1201.08 -50.8975 1191.94 -54.2201 1182.4 -55.5634C1172.86 -56.9067 1163.14 -56.2408 1153.87 -53.6087C1144.46 -51.3446 1135.61 -47.1589 1127.9 -41.3173C1120.19 -35.4756 1113.78 -28.1055 1109.07 -19.6746C1104.19 -10.9597 1101.13 -1.36022 1100.05 8.5505C1098.98 18.4612 1099.93 28.48 1102.83 38.0085C1109.15 61.5802 1122.64 77.9353 1143.32 87.0738C1158.84 94.1796 1176.4 95.5808 1192.89 91.0291C1202.34 88.5443 1211.16 84.1038 1218.77 77.9981L1167.26 39.1657L1216.02 26.1011L1241.94 45.8226Z" fill="#0366FF" fill-opacity="0.05"/>
<path d="M1304.48 -71.3336L1344.68 -82.1051L1365.01 -6.23369C1367.27 4.26767 1371.07 14.3786 1376.27 23.7765C1379.51 28.6758 1384.22 32.4319 1389.74 34.5124C1395.54 36.5062 1401.84 36.6153 1407.72 34.8242C1413.75 33.4107 1419.2 30.1899 1423.33 25.5978C1427.23 20.8942 1429.53 15.0872 1429.91 9.00953C1430.35 4.03971 1428.57 -5.87956 1424.59 -20.7483L1403.89 -97.9701L1443.64 -108.62L1461.53 -41.8748C1468.89 -14.3745 1471.74 5.03815 1470.07 16.3631C1468.53 29.364 1462.97 41.5793 1454.17 51.3266C1444.1 61.5616 1431.27 68.6847 1417.24 71.836C1399.88 76.4886 1384.8 76.3914 1372.01 71.5445C1358.95 66.5069 1347.95 57.2986 1340.74 45.3609C1335.01 36.4864 1328.8 19.5093 1322.11 -5.57022L1304.48 -71.3336Z" fill="#0366FF" fill-opacity="0.05"/>
<path d="M1479.15 -118.135L1518.9 -128.785L1561.1 28.7277L1521.36 39.3779L1479.15 -118.135Z" fill="#0366FF" fill-opacity="0.05"/>
</g>
<g clip-path="url(#clip5_14_1429)">
<path d="M21.3726 400.595C14.6504 402.396 8.91523 406.779 5.42868 412.78C1.94214 418.781 0.989806 425.909 2.78125 432.595C3.63512 436.03 5.17622 439.257 7.31251 442.084C9.44881 444.91 12.1365 447.277 15.2152 449.044C18.1861 450.869 21.5073 452.057 24.968 452.534C28.4287 453.011 31.9533 452.767 35.3178 451.816C38.643 450.964 41.7569 449.436 44.4636 447.33C47.1702 445.223 49.411 442.583 51.0451 439.575C52.8205 436.59 53.9653 433.277 54.4092 429.84C54.8531 426.402 54.5869 422.912 53.6267 419.585C52.7818 416.201 51.2591 413.023 49.15 410.242C47.0409 407.461 44.3886 405.134 41.3518 403.399C38.3981 401.589 35.0993 400.405 31.6616 399.923C28.224 399.44 24.7213 399.669 21.3726 400.595Z" fill="#0366FF" fill-opacity="0.05"/>
<path d="M33.1645 384.364L7.86003 215.7L-62.4817 225.074L3.23759 392.164C11.8461 385.868 22.5066 383.012 33.1096 384.16L33.1645 384.364Z" fill="#0366FF" fill-opacity="0.05"/>
</g>
<g clip-path="url(#clip6_14_1429)">
<path d="M532.952 557.189C526.23 558.99 520.494 563.374 517.008 569.375C513.521 575.376 512.569 582.503 514.36 589.189C515.214 592.625 516.755 595.852 518.892 598.678C521.028 601.504 523.716 603.872 526.794 605.639C529.765 607.463 533.086 608.652 536.547 609.129C540.008 609.606 543.532 609.361 546.897 608.411C550.222 607.558 553.336 606.031 556.043 603.924C558.749 601.818 560.99 599.177 562.624 596.17C564.4 593.185 565.544 589.872 565.988 586.434C566.432 582.997 566.166 579.507 565.206 576.179C564.361 572.795 562.838 569.618 560.729 566.837C558.62 564.056 555.968 561.728 552.931 559.994C549.977 558.183 546.679 557 543.241 556.517C539.803 556.035 536.3 556.263 532.952 557.189Z" fill="#0366FF" fill-opacity="0.05"/>
<path d="M544.744 540.959L519.439 372.294L449.097 381.668L514.817 548.758C523.425 542.463 534.086 539.606 544.689 540.754L544.744 540.959Z" fill="#0366FF" fill-opacity="0.05"/>
<path d="M40.8774 696.409L90.996 734.341L42.7318 747.273L17.3131 728.118C3.55479 741.043 -13.2829 750.265 -31.6034 754.91C-46.4422 759.316 -62.0392 760.562 -77.3768 758.565C-92.7143 756.568 -107.448 751.374 -120.616 743.321C-133.708 735.71 -145.142 725.578 -154.249 713.516C-163.357 701.453 -169.957 687.7 -173.664 673.059C-179.084 653.515 -179.181 632.874 -173.947 613.251C-168.712 593.628 -158.333 575.73 -143.875 561.389C-129.612 546.951 -111.714 536.595 -92.0637 531.409C-77.5155 527.343 -62.2915 526.291 -47.3349 528.32C-32.3784 530.348 -18.0079 535.413 -5.11406 543.2C8.31053 550.711 20.0477 560.872 29.3801 573.062C38.7125 585.252 45.444 599.215 49.1632 614.098C57.0175 641.557 54.0545 670.991 40.8774 696.409ZM6.63575 670.495C11.8525 655.756 12.4226 639.794 8.26958 624.748C5.91411 615.199 1.66213 606.219 -4.23619 598.339C-10.1345 590.459 -17.56 583.836 -26.0758 578.862C-34.2305 573.775 -43.3722 570.452 -52.9091 569.109C-62.446 567.766 -72.1655 568.431 -81.4383 571.063C-90.8519 573.328 -99.6952 577.513 -107.407 583.355C-115.119 589.197 -121.531 596.567 -126.236 604.998C-131.115 613.713 -134.183 623.312 -135.255 633.223C-136.327 643.133 -135.383 653.152 -132.477 662.681C-126.161 686.252 -112.665 702.608 -91.9881 711.746C-76.4687 718.852 -58.908 720.253 -42.4181 715.701C-32.9713 713.216 -24.1527 708.776 -16.539 702.67L-68.0455 663.838L-19.2875 650.773L6.63575 670.495Z" fill="#0366FF" fill-opacity="0.05"/>
<path d="M69.1772 553.339L109.377 542.567L129.707 618.438C131.965 628.94 135.759 639.051 140.967 648.449C144.207 653.348 148.916 657.104 154.428 659.185C160.235 661.178 166.532 661.287 172.416 659.496C178.442 658.083 183.89 654.862 188.025 650.27C191.922 645.566 194.225 639.759 194.605 633.682C195.037 628.712 193.262 618.793 189.278 603.924L168.586 526.702L208.333 516.052L226.217 582.797C233.586 610.298 236.436 629.71 234.766 641.035C233.222 654.036 227.666 666.251 218.865 675.999C208.793 686.234 195.967 693.357 181.936 696.508C164.573 701.161 149.494 701.064 136.7 696.217C123.644 691.179 112.647 681.971 105.429 670.033C99.6992 661.158 93.4891 644.181 86.7985 619.102L69.1772 553.339Z" fill="#0366FF" fill-opacity="0.05"/>
<path d="M243.842 506.537L283.589 495.887L325.794 653.4L286.047 664.05L243.842 506.537Z" fill="#0366FF" fill-opacity="0.05"/>
<path d="M312.967 488.015L434.43 455.469L396.33 598.665L463.563 580.65L472.521 614.085L344.269 648.45L382.504 505.261L321.937 521.49L312.967 488.015Z" fill="#0366FF" fill-opacity="0.05"/>
</g>
<g clip-path="url(#clip7_14_1429)">
<path d="M1404.95 323.537C1398.23 325.338 1392.5 329.721 1389.01 335.722C1385.52 341.723 1384.57 348.851 1386.36 355.537C1387.22 358.972 1388.76 362.199 1390.89 365.026C1393.03 367.852 1395.72 370.219 1398.8 371.986C1401.77 373.811 1405.09 374.999 1408.55 375.476C1412.01 375.953 1415.54 375.709 1418.9 374.758C1422.23 373.906 1425.34 372.378 1428.05 370.272C1430.75 368.165 1432.99 365.525 1434.63 362.517C1436.4 359.532 1437.55 356.219 1437.99 352.782C1438.44 349.344 1438.17 345.854 1437.21 342.527C1436.36 339.143 1434.84 335.965 1432.73 333.184C1430.62 330.403 1427.97 328.076 1424.93 326.341C1421.98 324.531 1418.68 323.347 1415.24 322.865C1411.81 322.382 1408.3 322.611 1404.95 323.537Z" fill="#0366FF" fill-opacity="0.05"/>
<path d="M1416.75 307.306L1391.44 138.642L1321.1 148.016L1386.82 315.106C1395.43 308.81 1406.09 305.954 1416.69 307.102L1416.75 307.306Z" fill="#0366FF" fill-opacity="0.05"/>
<path d="M617.886 414.339C621.211 413.523 624.336 412.039 627.067 409.98C629.799 407.921 632.081 405.328 633.773 402.363C635.533 399.402 636.673 396.119 637.124 392.711C637.576 389.304 637.329 385.842 636.398 382.536C635.548 379.102 634.013 375.876 631.884 373.048C629.755 370.221 627.076 367.849 624.005 366.075C621.019 364.274 617.691 363.104 614.228 362.636C610.765 362.168 607.24 362.413 603.872 363.355C600.554 364.198 597.446 365.716 594.744 367.814C592.042 369.912 589.805 372.544 588.175 375.544C586.423 378.506 585.291 381.789 584.847 385.194C584.403 388.6 584.656 392.058 585.591 395.36C586.441 398.763 587.976 401.958 590.104 404.75C592.232 407.542 594.908 409.874 597.97 411.605C600.917 413.404 604.208 414.576 607.635 415.047C611.063 415.517 614.553 415.276 617.886 414.339Z" fill="#0366FF" fill-opacity="0.05"/>
<path d="M606.106 430.61L631.41 599.275L701.741 589.86L636.021 422.77C631.806 425.859 627.038 428.12 621.974 429.429C616.813 430.866 611.418 431.268 606.106 430.61Z" fill="#0366FF" fill-opacity="0.05"/>
<path d="M912.88 462.756L962.999 500.688L914.735 513.621L889.316 494.466C875.558 507.391 858.72 516.613 840.399 521.258C825.561 525.664 809.964 526.909 794.626 524.912C779.289 522.915 764.555 517.721 751.387 509.669C738.294 502.058 726.861 491.926 717.754 479.863C708.646 467.8 702.046 454.048 698.339 439.406C692.919 419.862 692.822 399.221 698.056 379.599C703.291 359.976 713.669 342.077 728.128 327.736C742.391 313.299 760.289 302.942 779.939 297.757C794.487 293.69 809.711 292.639 824.668 294.667C839.625 296.695 853.995 301.76 866.889 309.547C880.313 317.058 892.051 327.22 901.383 339.41C910.715 351.6 917.447 365.563 921.166 380.446C929.02 407.904 926.057 437.339 912.88 462.756ZM878.639 436.842C883.855 422.103 884.425 406.141 880.272 391.096C877.917 381.546 873.665 372.567 867.767 364.686C861.868 356.806 854.443 350.184 845.927 345.209C837.772 340.122 828.631 336.8 819.094 335.456C809.557 334.113 799.837 334.779 790.565 337.411C781.151 339.675 772.308 343.861 764.596 349.703C756.884 355.544 750.472 362.914 745.767 371.345C740.888 380.06 737.82 389.66 736.748 399.57C735.676 409.481 736.62 419.5 739.526 429.028C745.842 452.6 759.338 468.955 780.015 478.094C795.534 485.199 813.095 486.601 829.585 482.049C839.032 479.564 847.85 475.124 855.464 469.018L803.957 430.186L852.715 417.121L878.639 436.842Z" fill="#0366FF" fill-opacity="0.05"/>
<path d="M941.18 319.686L981.38 308.915L1001.71 384.786C1003.97 395.287 1007.76 405.398 1012.97 414.796C1016.21 419.695 1020.92 423.452 1026.43 425.532C1032.24 427.526 1038.54 427.635 1044.42 425.844C1050.44 424.43 1055.89 421.21 1060.03 416.617C1063.92 411.914 1066.23 406.107 1066.61 400.029C1067.04 395.059 1065.26 385.14 1061.28 370.271L1040.59 293.05L1080.34 282.399L1098.22 349.145C1105.59 376.645 1108.44 396.058 1106.77 407.383C1105.22 420.384 1099.67 432.599 1090.87 442.346C1080.8 452.581 1067.97 459.704 1053.94 462.856C1036.58 467.508 1021.5 467.411 1008.7 462.564C995.647 457.527 984.649 448.318 977.432 436.381C971.702 427.506 965.492 410.529 958.801 385.449L941.18 319.686Z" fill="#0366FF" fill-opacity="0.05"/>
<path d="M1115.84 272.885L1155.59 262.235L1197.8 419.747L1158.05 430.398L1115.84 272.885Z" fill="#0366FF" fill-opacity="0.05"/>
<path d="M1184.97 254.363L1306.43 221.817L1268.33 365.013L1335.57 346.998L1344.52 380.432L1216.27 414.797L1254.51 271.609L1193.94 287.838L1184.97 254.363Z" fill="#0366FF" fill-opacity="0.05"/>
</g>
<g clip-path="url(#clip8_14_1429)">
<path d="M1042.06 716.074C1035.34 717.876 1029.6 722.259 1026.12 728.26C1022.63 734.261 1021.68 741.389 1023.47 748.074C1024.32 751.51 1025.86 754.737 1028 757.564C1030.14 760.39 1032.82 762.757 1035.9 764.524C1038.87 766.349 1042.2 767.537 1045.66 768.014C1049.12 768.491 1052.64 768.247 1056.01 767.296C1059.33 766.444 1062.45 764.916 1065.15 762.81C1067.86 760.703 1070.1 758.063 1071.73 755.055C1073.51 752.07 1074.65 748.757 1075.1 745.32C1075.54 741.882 1075.28 738.392 1074.31 735.065C1073.47 731.681 1071.95 728.503 1069.84 725.722C1067.73 722.941 1065.08 720.614 1062.04 718.879C1059.09 717.069 1055.79 715.885 1052.35 715.403C1048.91 714.92 1045.41 715.149 1042.06 716.074Z" fill="#0366FF" fill-opacity="0.05"/>
<path d="M1053.85 699.844L1028.55 531.18L958.207 540.554L1023.93 707.644C1032.53 701.348 1043.19 698.492 1053.8 699.64L1053.85 699.844Z" fill="#0366FF" fill-opacity="0.05"/>
<path d="M254.993 806.877C258.318 806.061 261.442 804.577 264.174 802.518C266.906 800.458 269.187 797.866 270.879 794.9C272.639 791.94 273.779 788.657 274.231 785.249C274.682 781.841 274.435 778.38 273.504 775.074C272.654 771.64 271.119 768.414 268.99 765.586C266.862 762.759 264.182 760.387 261.112 758.613C258.125 756.812 254.797 755.642 251.334 755.174C247.871 754.706 244.347 754.951 240.979 755.893C237.661 756.736 234.552 758.254 231.85 760.352C229.148 762.45 226.912 765.082 225.282 768.082C223.53 771.044 222.398 774.326 221.953 777.732C221.509 781.138 221.762 784.596 222.697 787.898C223.547 791.301 225.082 794.496 227.21 797.288C229.338 800.08 232.014 802.412 235.076 804.143C238.023 805.942 241.314 807.114 244.742 807.585C248.169 808.055 251.659 807.814 254.993 806.877Z" fill="#0366FF" fill-opacity="0.05"/>
<path d="M243.212 823.148L268.516 991.813L338.847 982.398L273.128 815.308C268.912 818.397 264.144 820.657 259.08 821.966C253.919 823.404 248.525 823.806 243.212 823.148Z" fill="#0366FF" fill-opacity="0.05"/>
<path d="M549.987 855.294L600.105 893.226L551.841 906.159L526.422 887.004C512.664 899.929 495.826 909.151 477.506 913.796C462.667 918.202 447.07 919.447 431.732 917.45C416.395 915.453 401.661 910.259 388.493 902.207C375.401 894.596 363.967 884.464 354.86 872.401C345.752 860.338 339.153 846.585 335.445 831.944C330.025 812.4 329.928 791.759 335.163 772.137C340.397 752.514 350.776 734.615 365.235 720.274C379.497 705.836 397.395 695.48 417.045 690.294C431.594 686.228 446.818 685.177 461.774 687.205C476.731 689.233 491.101 694.298 503.995 702.085C517.42 709.596 529.157 719.757 538.489 731.948C547.822 744.138 554.553 758.101 558.272 772.983C566.127 800.442 563.164 829.876 549.987 855.294ZM515.745 829.38C520.962 814.641 521.532 798.679 517.379 783.634C515.023 774.084 510.771 765.105 504.873 757.224C498.975 749.344 491.549 742.722 483.033 737.747C474.879 732.66 465.737 729.338 456.2 727.994C446.663 726.651 436.944 727.317 427.671 729.949C418.257 732.213 409.414 736.399 401.702 742.24C393.99 748.082 387.578 755.452 382.873 763.883C377.994 772.598 374.927 782.197 373.854 792.108C372.782 802.019 373.727 812.038 376.632 821.566C382.948 845.138 396.444 861.493 417.121 870.631C432.64 877.737 450.201 879.138 466.691 874.587C476.138 872.102 484.956 867.661 492.57 861.556L441.064 822.723L489.822 809.659L515.745 829.38Z" fill="#0366FF" fill-opacity="0.05"/>
<path d="M578.286 712.224L618.486 701.452L638.816 777.324C641.074 787.825 644.868 797.936 650.076 807.334C653.316 812.233 658.025 815.989 663.537 818.07C669.344 820.064 675.641 820.173 681.525 818.382C687.551 816.968 692.999 813.747 697.134 809.155C701.031 804.452 703.334 798.645 703.714 792.567C704.147 787.597 702.371 777.678 698.387 762.809L677.695 685.587L717.442 674.937L735.327 741.683C742.695 769.183 745.545 788.596 743.875 799.921C742.331 812.921 736.775 825.137 727.974 834.884C717.902 845.119 705.076 852.242 691.045 855.394C673.682 860.046 658.603 859.949 645.809 855.102C632.753 850.064 621.756 840.856 614.538 828.918C608.808 820.044 602.598 803.067 595.908 777.987L578.286 712.224Z" fill="#0366FF" fill-opacity="0.05"/>
<path d="M752.951 665.423L792.698 654.772L834.904 812.285L795.157 822.935L752.951 665.423Z" fill="#0366FF" fill-opacity="0.05"/>
<path d="M822.076 646.901L943.539 614.355L905.439 757.551L972.672 739.536L981.63 772.97L853.378 807.335L891.613 664.147L831.046 680.376L822.076 646.901Z" fill="#0366FF" fill-opacity="0.05"/>
</g>
<g clip-path="url(#clip9_14_1429)">
<path d="M1128.43 572.839C1131.76 572.022 1134.88 570.539 1137.62 568.48C1140.35 566.42 1142.63 563.828 1144.32 560.862C1146.08 557.902 1147.22 554.619 1147.67 551.211C1148.12 547.803 1147.88 544.342 1146.95 541.035C1146.1 537.602 1144.56 534.376 1142.43 531.548C1140.3 528.72 1137.62 526.349 1134.55 524.575C1131.57 522.774 1128.24 521.603 1124.78 521.136C1121.31 520.668 1117.79 520.913 1114.42 521.855C1111.1 522.698 1107.99 524.216 1105.29 526.314C1102.59 528.412 1100.35 531.044 1098.72 534.044C1096.97 537.006 1095.84 540.288 1095.4 543.694C1094.95 547.1 1095.2 550.558 1096.14 553.86C1096.99 557.263 1098.52 560.457 1100.65 563.25C1102.78 566.042 1105.46 568.374 1108.52 570.105C1111.47 571.904 1114.76 573.076 1118.18 573.546C1121.61 574.017 1125.1 573.776 1128.43 572.839Z" fill="#0366FF" fill-opacity="0.05"/>
<path d="M1116.65 589.11L1141.96 757.774L1212.29 748.36L1146.57 581.269C1142.35 584.359 1137.59 586.619 1132.52 587.928C1127.36 589.366 1121.97 589.767 1116.65 589.11Z" fill="#0366FF" fill-opacity="0.05"/>
<path d="M1423.43 621.256L1473.55 659.188L1425.28 672.121L1399.86 652.966C1386.11 665.891 1369.27 675.113 1350.95 679.757C1336.11 684.164 1320.51 685.409 1305.17 683.412C1289.84 681.415 1275.1 676.221 1261.94 668.168C1248.84 660.558 1237.41 650.426 1228.3 638.363C1219.19 626.3 1212.59 612.547 1208.89 597.906C1203.47 578.362 1203.37 557.721 1208.6 538.098C1213.84 518.476 1224.22 500.577 1238.68 486.236C1252.94 471.798 1270.84 461.442 1290.49 456.256C1305.04 452.19 1320.26 451.139 1335.22 453.167C1350.17 455.195 1364.54 460.26 1377.44 468.047C1390.86 475.558 1402.6 485.719 1411.93 497.909C1421.26 510.1 1428 524.063 1431.71 538.945C1439.57 566.404 1436.61 595.838 1423.43 621.256ZM1389.19 595.342C1394.4 580.603 1394.97 564.641 1390.82 549.596C1388.47 540.046 1384.21 531.067 1378.31 523.186C1372.42 515.306 1364.99 508.683 1356.48 503.709C1348.32 498.622 1339.18 495.299 1329.64 493.956C1320.11 492.613 1310.39 493.279 1301.11 495.911C1291.7 498.175 1282.86 502.36 1275.14 508.202C1267.43 514.044 1261.02 521.414 1256.31 529.845C1251.44 538.56 1248.37 548.159 1247.3 558.07C1246.22 567.981 1247.17 577.999 1250.07 587.528C1256.39 611.1 1269.89 627.455 1290.56 636.593C1306.08 643.699 1323.64 645.1 1340.13 640.548C1349.58 638.064 1358.4 633.623 1366.01 627.517L1314.51 588.685L1363.26 575.62L1389.19 595.342Z" fill="#0366FF" fill-opacity="0.05"/>
<path d="M1451.73 478.186L1491.93 467.414L1512.26 543.286C1514.52 553.787 1518.31 563.898 1523.52 573.296C1526.76 578.195 1531.47 581.951 1536.98 584.032C1542.79 586.025 1549.08 586.135 1554.97 584.343C1560.99 582.93 1566.44 579.709 1570.58 575.117C1574.47 570.414 1576.78 564.606 1577.16 558.529C1577.59 553.559 1575.81 543.64 1571.83 528.771L1551.14 451.549L1590.88 440.899L1608.77 507.645C1616.14 535.145 1618.99 554.557 1617.32 565.882C1615.77 578.883 1610.22 591.099 1601.42 600.846C1591.34 611.081 1578.52 618.204 1564.49 621.355C1547.12 626.008 1532.04 625.911 1519.25 621.064C1506.2 616.026 1495.2 606.818 1487.98 594.88C1482.25 586.006 1476.04 569.029 1469.35 543.949L1451.73 478.186Z" fill="#0366FF" fill-opacity="0.05"/>
</g>
<g clip-path="url(#clip10_14_1429)">
<path d="M180.407 933.883L155.103 765.219L84.7612 774.593L150.481 941.683C159.089 935.387 169.75 932.531 180.353 933.679L180.407 933.883Z" fill="#0366FF" fill-opacity="0.05"/>
<path d="M-51.369 880.94L70.094 848.394L31.9936 991.59L99.2262 973.575L108.185 1007.01L-20.0672 1041.37L18.1675 898.186L-42.3994 914.415L-51.369 880.94Z" fill="#0366FF" fill-opacity="0.05"/>
</g>
<g clip-path="url(#clip11_14_1429)">
<path d="M1488.45 181.073C1491.77 180.257 1494.9 178.774 1497.63 176.714C1500.36 174.655 1502.64 172.063 1504.33 169.097C1506.09 166.136 1507.23 162.853 1507.68 159.445C1508.14 156.038 1507.89 152.576 1506.96 149.27C1506.11 145.837 1504.57 142.61 1502.44 139.783C1500.31 136.955 1497.64 134.583 1494.56 132.809C1491.58 131.008 1488.25 129.838 1484.79 129.37C1481.32 128.902 1477.8 129.147 1474.43 130.089C1471.11 130.932 1468.01 132.451 1465.3 134.549C1462.6 136.647 1460.36 139.279 1458.73 142.278C1456.98 145.24 1455.85 148.523 1455.41 151.928C1454.96 155.334 1455.22 158.792 1456.15 162.094C1457 165.497 1458.54 168.692 1460.66 171.484C1462.79 174.277 1465.47 176.609 1468.53 178.339C1471.48 180.139 1474.77 181.31 1478.19 181.781C1481.62 182.251 1485.11 182.01 1488.45 181.073Z" fill="#0366FF" fill-opacity="0.05"/>
<path d="M1476.67 197.344L1501.97 366.009L1572.3 356.594L1506.58 189.504C1502.37 192.593 1497.6 194.854 1492.53 196.163C1487.37 197.6 1481.98 198.002 1476.67 197.344Z" fill="#0366FF" fill-opacity="0.05"/>
</g>
<g clip-path="url(#clip12_14_1429)">
<path d="M1564.08 857.165L1538.78 688.501L1468.43 697.875L1534.15 864.965C1542.76 858.669 1553.42 855.813 1564.03 856.961L1564.08 857.165Z" fill="#0366FF" fill-opacity="0.05"/>
<path d="M765.221 964.198C768.546 963.382 771.67 961.899 774.402 959.839C777.134 957.78 779.415 955.188 781.107 952.222C782.867 949.261 784.008 945.978 784.459 942.57C784.91 939.163 784.663 935.701 783.733 932.395C782.883 928.962 781.348 925.735 779.219 922.908C777.09 920.08 774.41 917.708 771.34 915.934C768.353 914.133 765.025 912.963 761.562 912.495C758.099 912.027 754.575 912.272 751.207 913.214C747.889 914.057 744.78 915.576 742.079 917.674C739.377 919.772 737.14 922.404 735.51 925.403C733.758 928.365 732.626 931.648 732.182 935.053C731.738 938.459 731.991 941.917 732.926 945.219C733.775 948.622 735.311 951.817 737.438 954.609C739.566 957.402 742.242 959.734 745.305 961.464C748.251 963.264 751.542 964.435 754.97 964.906C758.397 965.376 761.888 965.135 765.221 964.198Z" fill="#0366FF" fill-opacity="0.05"/>
<path d="M1060.21 1012.62L1110.33 1050.55L1062.07 1063.48L1036.65 1044.33C1022.89 1057.25 1006.05 1066.47 987.734 1071.12C972.895 1075.52 957.298 1076.77 941.961 1074.77C926.623 1072.77 911.89 1067.58 898.722 1059.53C885.629 1051.92 874.196 1041.79 865.088 1029.72C855.981 1017.66 849.381 1003.91 845.673 989.265C840.254 969.721 840.156 949.081 845.391 929.458C850.625 909.835 861.004 891.936 875.463 877.595C889.726 863.158 907.623 852.801 927.274 847.616C941.822 843.55 957.046 842.498 972.002 844.526C986.959 846.555 1001.33 851.619 1014.22 859.407C1027.65 866.918 1039.39 877.079 1048.72 889.269C1058.05 901.459 1064.78 915.422 1068.5 930.305C1076.35 957.763 1073.39 987.198 1060.21 1012.62ZM1025.97 986.701C1031.19 971.962 1031.76 956 1027.61 940.955C1025.25 931.405 1021 922.426 1015.1 914.546C1009.2 906.665 1001.78 900.043 993.261 895.068C985.107 889.981 975.965 886.659 966.428 885.315C956.891 883.972 947.172 884.638 937.899 887.27C928.485 889.534 919.642 893.72 911.93 899.562C904.218 905.403 897.806 912.773 893.101 921.204C888.222 929.919 885.155 939.519 884.082 949.429C883.01 959.34 883.955 969.359 886.86 978.887C893.176 1002.46 906.673 1018.81 927.349 1027.95C942.869 1035.06 960.429 1036.46 976.919 1031.91C986.366 1029.42 995.185 1024.98 1002.8 1018.88L951.292 980.045L1000.05 966.98L1025.97 986.701Z" fill="#0366FF" fill-opacity="0.05"/>
<path d="M1088.51 869.545L1128.71 858.774L1149.04 934.645C1151.3 945.146 1155.1 955.257 1160.3 964.655C1163.54 969.555 1168.25 973.311 1173.77 975.391C1179.57 977.385 1185.87 977.494 1191.75 975.703C1197.78 974.289 1203.23 971.069 1207.36 966.477C1211.26 961.773 1213.56 955.966 1213.94 949.888C1214.37 944.918 1212.6 934.999 1208.61 920.131L1187.92 842.909L1227.67 832.258L1245.55 899.004C1252.92 926.504 1255.77 945.917 1254.1 957.242C1252.56 970.243 1247 982.458 1238.2 992.205C1228.13 1002.44 1215.3 1009.56 1201.27 1012.71C1183.91 1017.37 1168.83 1017.27 1156.04 1012.42C1142.98 1007.39 1131.98 998.177 1124.77 986.24C1119.04 977.365 1112.83 960.388 1106.14 935.309L1088.51 869.545Z" fill="#0366FF" fill-opacity="0.05"/>
<path d="M1263.18 822.744L1302.93 812.094L1345.13 969.607L1305.38 980.257L1263.18 822.744Z" fill="#0366FF" fill-opacity="0.05"/>
<path d="M1332.3 804.222L1453.77 771.676L1415.67 914.872L1482.9 896.857L1491.86 930.291L1363.61 964.656L1401.84 821.468L1341.27 837.697L1332.3 804.222Z" fill="#0366FF" fill-opacity="0.05"/>
</g>
<g clip-path="url(#clip13_14_1429)">
</g>
</g>
<defs>
<clipPath id="clip0_14_1429">
<rect width="1499" height="912" fill="white"/>
</clipPath>
<clipPath id="clip1_14_1429">
<rect width="853.355" height="266.486" fill="white" transform="translate(-454.45 34.8003) rotate(-15)"/>
</clipPath>
<clipPath id="clip2_14_1429">
<rect width="853.355" height="266.486" fill="white" transform="translate(417.552 -198.852) rotate(-15)"/>
</clipPath>
<clipPath id="clip3_14_1429">
<rect width="853.355" height="266.486" fill="white" transform="translate(54.6591 193.685) rotate(-15)"/>
</clipPath>
<clipPath id="clip4_14_1429">
<rect width="853.355" height="266.486" fill="white" transform="translate(928.101 -40.3525) rotate(-15)"/>
</clipPath>
<clipPath id="clip5_14_1429">
<rect width="853.355" height="266.486" fill="white" transform="translate(-818.786 427.725) rotate(-15)"/>
</clipPath>
<clipPath id="clip6_14_1429">
<rect width="853.355" height="266.486" fill="white" transform="translate(-307.207 584.32) rotate(-15)"/>
</clipPath>
<clipPath id="clip7_14_1429">
<rect width="853.355" height="266.486" fill="white" transform="translate(564.796 350.667) rotate(-15)"/>
</clipPath>
<clipPath id="clip8_14_1429">
<rect width="853.355" height="266.486" fill="white" transform="translate(201.902 743.205) rotate(-15)"/>
</clipPath>
<clipPath id="clip9_14_1429">
<rect width="853.355" height="266.486" fill="white" transform="translate(1075.34 509.167) rotate(-15)"/>
</clipPath>
<clipPath id="clip10_14_1429">
<rect width="853.355" height="266.486" fill="white" transform="translate(-671.543 977.244) rotate(-15)"/>
</clipPath>
<clipPath id="clip11_14_1429">
<rect width="853.355" height="266.486" fill="white" transform="translate(1435.36 117.401) rotate(-15)"/>
</clipPath>
<clipPath id="clip12_14_1429">
<rect width="853.355" height="266.486" fill="white" transform="translate(712.13 900.526) rotate(-15)"/>
</clipPath>
<clipPath id="clip13_14_1429">
<rect width="853.355" height="266.486" fill="white" transform="translate(1222.68 1059.03) rotate(-15)"/>
</clipPath>
</defs>
</svg>
